HIERARCHY
ROOT Hips
{
	OFFSET 1.693964 105.470886 -1.111724
	CHANNELS 6 Xposition Yposition Zposition Xrotation Yrotation Zrotation
	JOINT Chest
	{
		OFFSET 0.278170 13.568321 1.406225
		CHANNELS 3 Xrotation Yrotation Zrotation
		JOINT Chest2
		{
			OFFSET -0.473678 21.310753 2.166528
			CHANNELS 3 Xrotation Yrotation Zrotation
			JOINT Chest3
			{
				OFFSET -0.446322 14.917084 -0.318505
				CHANNELS 3 Xrotation Yrotation Zrotation
				JOINT Neck
				{
					OFFSET 0.384885 17.220779 1.382985
					CHANNELS 3 Xrotation Yrotation Zrotation
					JOINT Head
					{
						OFFSET -0.447340 10.380798 1.366220
						CHANNELS 3 Xrotation Yrotation Zrotation
						End Site
						{
							OFFSET -0.441938 10.390289 1.293949
						}
					}
				}
				JOINT LeftCollar
				{
					OFFSET 4.590206 12.896713 3.795960
					CHANNELS 3 Xrotation Yrotation Zrotation
					JOINT LeftUpArm
					{
						OFFSET 14.072577 -5.675156 -8.846161
						CHANNELS 3 Xrotation Yrotation Zrotation
						JOINT LeftLowArm
						{
							OFFSET 4.013695 -33.519852 0.196563
							CHANNELS 3 Xrotation Yrotation Zrotation
							JOINT LeftHand
							{
								OFFSET -1.555498 -28.186508 10.200414
								CHANNELS 3 Xrotation Yrotation Zrotation
								End Site
								{
									OFFSET -0.339964 -6.160324 2.229358
								}
							}
						}
					}
				}
				JOINT RightCollar
				{
					OFFSET -3.820223 13.062653 4.072034
					CHANNELS 3 Xrotation Yrotation Zrotation
					JOINT RightUpArm
					{
						OFFSET -14.341259 -6.023041 -8.157670
						CHANNELS 3 Xrotation Yrotation Zrotation
						JOINT RightLowArm
						{
							OFFSET -5.333553 -33.292053 -1.710915
							CHANNELS 3 Xrotation Yrotation Zrotation
							JOINT RightHand
							{
								OFFSET 1.025496 -28.437340 9.550984
								CHANNELS 3 Xrotation Yrotation Zrotation
								End Site
								{
									OFFSET 0.224127 -6.215263 2.087461
								}
							}
						}
					}
				}
			}
		}
	}
	JOINT LeftUpLeg
	{
		OFFSET 10.016856 -0.223976 0.177641
		CHANNELS 3 Xrotation Yrotation Zrotation
		JOINT LeftLowLeg
		{
			OFFSET 2.467608 -47.116390 -4.236237
			CHANNELS 3 Xrotation Yrotation Zrotation
			JOINT LeftFoot
			{
				OFFSET 0.549664 -42.938499 -12.512027
				CHANNELS 3 Xrotation Yrotation Zrotation
				JOINT LeftToe
				{
					OFFSET 0.825927 -15.733069 17.645052
					CHANNELS 3 Xrotation Yrotation Zrotation
					End Site
					{
						OFFSET 1.192274 -0.948508 23.605885
					}
				}
			}
		}
	}
	JOINT RightUpLeg
	{
		OFFSET -10.016865 0.223785 -0.177662
		CHANNELS 3 Xrotation Yrotation Zrotation
		JOINT RightLowLeg
		{
			OFFSET -1.759621 -47.316036 -1.452529
			CHANNELS 3 Xrotation Yrotation Zrotation
			JOINT RightFoot
			{
				OFFSET 0.460944 -42.378094 -14.299150
				CHANNELS 3 Xrotation Yrotation Zrotation
				JOINT RightToe
				{
					OFFSET -3.253078 -18.777832 14.013124
					CHANNELS 3 Xrotation Yrotation Zrotation
					End Site
					{
						OFFSET -5.099257 -5.382293 22.462963
					}
				}
			}
		}
	}
}
MOTION
Frames: 12
Frame Time: 0.033333
1.693964 105.470886 -1.111722 0.000000 0.000000 0.000000 0.000000 -0.000000 -0.000000 0.000001 0.000000 -0.000000 0.000001 0.000000 -0.000000 0.000001 -0.000001 0.000000 0.000001 -0.000000 0.000000 -0.000001 -0.000001 -0.000000 -0.000001 0.000000 0.000001 0.000002 -0.000001 -0.000002 0.000003 -0.000002 -0.000002 -0.000000 -0.000000 -0.000000 -0.000001 0.000000 0.000000 -0.000002 -0.000001 -0.000000 0.000000 -0.000002 0.000000 -0.000000 0.000000 0.000000 0.000000 0.000000 0.000000 -0.000000 -0.000000 0.000000 -0.000000 -0.000000 0.000000 0.000000 -0.000000 -0.000001 0.000003 -0.000000 -0.000001 0.000003 -0.000001 -0.000001 -0.000000 -0.000002 -0.000000 
1.694452 105.468048 -1.106743 -0.284553 0.115230 0.023837 1.680725 -0.035580 0.004301 -2.156592 -0.035915 0.113984 1.046934 0.054693 -0.105016 0.285417 -0.111919 0.005404 0.000000 -0.000000 0.000000 -0.018751 -0.560864 0.135618 -0.025136 0.113358 -0.372031 -0.116206 0.095018 0.483656 0.000002 -0.000001 -0.000000 -0.134232 -0.374289 -0.381710 0.167902 -0.267354 0.231398 -0.030767 0.047797 0.313427 0.000002 -0.000004 0.000000 0.319206 -0.001205 0.033069 0.025322 -0.011060 -0.038662 -0.005149 -0.253595 -0.144355 -0.000000 -0.000000 -0.000000 0.326280 0.014961 -0.047359 0.161852 0.107054 0.052239 -0.066105 0.113664 0.422848 -0.000000 -0.000001 -0.000000 
1.692925 105.470451 -1.105965 -0.380547 0.058636 0.070554 2.044402 -0.037663 -0.034947 -3.465137 0.005030 0.123280 2.176497 0.097278 -0.093755 0.119858 -0.042203 -0.044995 0.000001 -0.000000 0.000000 0.124322 -0.947148 -0.018324 -0.023043 0.001791 -0.312502 -0.285584 0.034884 0.822991 -0.000001 -0.000006 -0.000002 -0.099246 -0.659989 -0.280722 0.061234 -0.045133 0.121186 -0.253393 0.146045 0.323023 0.000000 -0.000000 -0.000001 0.278819 -0.018925 -0.028140 0.094897 -0.081009 -0.091802 -0.145067 0.000915 0.049683 -0.000000 -0.000000 -0.000000 -0.092654 0.080054 -0.185846 0.850670 0.220872 0.249032 -0.377884 0.028347 1.011084 0.000002 -0.000003 -0.000001 
1.691957 105.470810 -1.104364 -0.139328 0.305979 0.099546 1.904684 -0.037350 0.034738 -3.767196 -0.011349 0.159685 2.404674 0.256121 -0.184159 -0.240272 -0.134101 0.028439 0.000000 -0.000000 0.000001 0.143413 -1.316631 -0.018692 -0.142663 0.039585 -0.359143 -0.330167 0.199257 0.854929 0.000002 -0.000003 -0.000001 -0.189621 -0.857060 -0.342986 -0.045180 -0.136174 0.238058 -0.006522 -0.031610 0.375146 -0.000000 0.000001 -0.000001 0.092987 -0.048701 -0.017674 0.101434 -0.074891 -0.109536 -0.405380 -0.451600 0.170244 -0.000000 0.000000 0.000000 -0.153996 0.092281 -0.249736 0.775070 0.160913 0.332790 -0.493103 -0.084867 1.038535 0.000001 -0.000001 0.000000 
1.690621 105.475693 -1.105685 -0.465222 0.166584 0.148090 1.940851 -0.044006 -0.017720 -3.153284 -0.027929 0.139713 1.848440 0.291567 -0.168708 0.134505 -0.084659 -0.096363 0.000000 -0.000000 0.000000 0.168663 -1.018613 -0.062126 0.022659 0.033927 -0.219324 -0.238987 -0.015825 0.811530 0.000003 -0.000005 -0.000001 -0.114541 -0.665216 -0.448825 0.211425 -0.166785 0.333218 -0.187791 0.224727 0.311562 -0.000003 -0.000004 -0.000000 0.520641 0.002059 -0.035018 -0.290672 0.004262 -0.150609 -0.156197 -0.438817 -0.024218 -0.000000 -0.000000 0.000000 0.349242 0.042571 -0.292470 0.288515 0.005537 0.275185 -0.456265 0.160265 0.974828 0.000002 -0.000002 -0.000000 
1.687434 105.481140 -1.103673 -0.591165 0.107291 0.137086 1.956086 -0.036490 0.026208 -2.906895 -0.044532 0.127205 1.584343 0.307262 -0.185619 0.481610 -0.034374 -0.262783 0.000000 -0.000001 0.000001 -0.019522 -0.425807 -0.215252 0.131986 0.268213 0.015936 -0.256187 0.084409 0.422099 -0.000001 0.000000 -0.000001 -0.273580 -0.896243 -0.410331 0.070593 -0.255007 0.244818 0.012574 0.053433 0.605784 -0.000005 -0.000002 -0.000000 0.800604 0.041779 0.001271 -0.613294 0.086384 -0.156294 -0.012687 -0.506560 -0.184892 -0.000000 -0.000000 -0.000000 0.621482 -0.009115 -0.305538 0.009843 -0.089866 0.303978 -0.500005 0.006705 0.762919 0.000002 -0.000002 0.000000 
1.687683 105.489273 -1.103756 -0.236952 0.363986 0.114589 1.577066 -0.023349 0.140213 -3.504613 0.000206 0.061579 2.273336 0.075225 -0.185554 0.254125 -0.040671 -0.333552 -0.000000 -0.000000 0.000000 -0.019398 -0.752834 -0.252991 0.134766 0.442758 0.041621 -0.224845 0.275108 0.304904 -0.000000 -0.000003 -0.000001 -0.209278 -0.170344 -0.399692 0.109078 -0.496264 0.262956 -0.117788 -0.111586 0.469880 -0.000001 -0.000000 -0.000000 0.314574 0.047702 0.009738 -0.500062 0.137364 -0.065845 -0.134063 -0.606053 -0.125984 -0.000000 -0.000000 0.000000 0.030209 -0.008808 -0.255326 0.395946 -0.076366 0.320166 -0.645255 0.020719 1.105589 0.000002 0.000000 -0.000000 
1.685471 105.501305 -1.105083 -0.230328 0.289804 0.158709 1.455647 -0.026084 0.050359 -4.110113 0.011035 0.072463 2.918821 0.072348 -0.154029 0.181218 0.055647 -0.418912 0.000001 0.000000 0.000000 0.033039 -0.330217 -0.187049 -0.111426 0.065693 0.012612 -0.137385 -0.039967 0.348786 -0.000000 0.000000 -0.000001 -0.135596 -0.546893 -0.248002 0.003427 -0.148691 0.071095 -0.306201 0.296933 0.444835 -0.000001 -0.000002 0.000001 0.218290 0.061308 -0.045280 -0.382774 0.126606 -0.102891 -0.022003 -0.551958 -0.188165 0.000000 0.000000 0.000000 -0.151894 0.003981 -0.279617 0.810154 -0.091184 0.325077 -0.728524 0.083310 1.194581 0.000001 0.000000 -0.000000 
1.683268 105.506302 -1.105566 -0.647338 0.204956 0.211418 1.703083 -0.022385 -0.051162 -3.080681 0.001935 0.064365 1.939008 0.599643 -0.095379 0.462802 0.001512 -0.190113 0.000001 -0.000001 0.000000 0.060998 -1.072028 -0.045450 -0.086224 0.101523 -0.168542 -0.041681 0.124043 0.491656 0.000000 -0.000005 -0.000000 -0.337651 -1.622942 -0.255068 0.131883 -0.264455 -0.154539 -0.173416 0.148881 1.001692 -0.000002 -0.000002 -0.000001 0.605436 0.031282 -0.180806 -0.415492 0.040203 -0.037742 -0.130021 -0.181358 0.015535 -0.000000 -0.000000 0.000000 0.349654 0.005555 -0.325667 0.532384 0.031265 0.296041 -0.137110 0.044692 0.185903 -0.000001 0.000000 -0.000000 
1.680637 105.506943 -1.096493 -0.400811 0.333201 0.191820 1.728329 -0.033929 -0.007302 -4.185556 0.104173 -0.011341 2.893524 0.285188 0.000501 0.441090 0.219828 -0.386317 -0.000000 -0.000000 0.000000 0.156623 -0.805934 -0.050989 -0.267520 -0.099434 -0.103079 0.098446 0.130774 0.308143 0.000001 -0.000004 -0.000003 -0.208893 -1.300242 -0.363994 -0.229962 0.092912 -0.068816 -0.217768 0.082526 0.927042 0.000001 -0.000003 0.000001 0.461984 0.000342 -0.165737 -0.734630 0.046846 0.013408 0.011440 -0.071103 -0.062247 -0.000000 -0.000000 -0.000000 0.251887 0.027561 -0.310372 0.744523 0.032063 0.351902 -0.407223 0.335461 1.089268 0.000001 0.000001 0.000001 
1.679945 105.508911 -1.086250 -0.440408 0.632138 0.149658 1.647085 -0.034198 0.106924 -3.938586 0.079533 0.019537 2.653098 0.251829 -0.067154 0.579225 0.107420 -0.366610 -0.000001 0.000000 0.000000 0.159775 -0.976075 -0.061262 -0.022464 0.202485 -0.081727 -0.172949 0.241853 0.071172 -0.000001 -0.000002 -0.000001 -0.299599 -1.634463 -0.392699 0.119464 -0.242190 -0.165167 -0.432855 -0.022489 1.193214 -0.000002 0.000000 0.000000 0.384590 -0.008480 -0.122330 -0.676880 0.005977 0.085975 -0.122376 -0.500573 -0.054363 -0.000000 -0.000000 -0.000000 0.354970 0.010693 -0.259879 0.571518 -0.022046 0.401457 -0.532663 0.248230 1.111411 0.000001 -0.000001 -0.000001 
1.679496 105.514999 -1.081936 -0.451954 0.702539 0.171127 1.738689 -0.043616 0.072201 -3.491244 0.050665 0.052850 2.205337 0.404599 -0.144394 0.526571 -0.024234 -0.194148 0.000000 -0.000000 0.000000 0.276189 -1.448695 -0.178165 -0.199392 -0.096887 -0.012017 -0.337033 0.161739 0.426285 -0.000001 -0.000002 -0.000001 -0.235050 -1.683843 -0.376519 0.044640 -0.040304 -0.134819 -0.941484 0.131935 1.039345 -0.000000 -0.000000 -0.000001 0.499175 -0.018193 -0.093045 -0.588694 -0.031286 0.010396 -0.100607 -0.429547 -0.092314 -0.000000 -0.000000 -0.000000 0.542849 0.016333 -0.268987 0.455146 0.007575 0.391887 -0.453637 0.301411 1.111233 0.000002 -0.000001 -0.000000 
